# xmcd
#
# Track frame offsets: 
#        150
#        21308
#        43539
#        59480
#        79353
#        107478
#        121463
#        141751
#        198620
#        235031
#        268968
#        289886
#
# Disc length: 4366 seconds
#
# Revision: 1
# Processed by: cddbd v1.5.2PL0 Copyright (c) Steve Scherf et al.
# Submitted via: ExactAudioCopy v0.99pb4
#
DISCID=b6110c0c
DTITLE=Jimmy Smith - Hobo Flats and Keep On Comin'
DYEAR=1963
DGENRE=Blues
TTITLE0=Hobo Flats
TTITLE1=Blueberry Hill
TTITLE2=Walk Right In
TTITLE3=Trouble In Mind
TTITLE4=The Preacher
TTITLE5=Meditation
TTITLE6=I Can't Stop Loving You
TTITLE7=Keep On Comin'
TTITLE8=Be Yourself
TTITLE9=No Problem
TTITLE10=Piano Solo Medley
TTITLE11=Callitwhachawana
EXTD=
EXTT0=
EXTT1=
EXTT2=
EXTT3=
EXTT4=
EXTT5=
EXTT6=
EXTT7=
EXTT8=
EXTT9=
EXTT10=
EXTT11=
PLAYORDER=
